<svg width="100" height="17" viewBox="0 0 100 17" fill="current" xmlns="http://www.w3.org/2000/svg">
<path d="M33.4601 3.86004L30.9601 13.58H29.3401L27.2201 6.88004L25.1001 13.58H23.4801L20.9801 3.86004H22.6601L24.4201 10.84L26.3401 3.86004H28.1001L30.0201 10.84L31.7801 3.86004H33.4601ZM34.2201 8.74004C34.2201 5.60004 35.6001 3.66004 38.3201 3.66004C41.0401 3.66004 42.3601 5.60004 42.3601 8.74004C42.3601 11.88 41.0001 13.8 38.3201 13.8C35.6401 13.8 34.2201 11.84 34.2201 8.74004ZM40.7001 8.74004C40.7001 7.50004 40.4201 5.22004 38.3201 5.22004C36.2201 5.22004 35.9001 7.50004 35.9001 8.74004C35.9001 9.98004 36.1801 12.22 38.3201 12.22C40.4601 12.22 40.7001 9.94004 40.7001 8.74004ZM49.2201 13.58L47.3201 9.62004H45.6601V13.58H43.9801V3.86004H47.4001C49.7601 3.86004 51.0601 4.60004 51.0601 6.68004C51.0601 8.22004 50.3801 9.08004 49.1201 9.42004L51.0801 13.58H49.2201ZM45.6601 8.04004H47.3201C48.7601 8.04004 49.4201 7.68004 49.4201 6.74004C49.4201 5.80004 48.7201 5.44004 47.3201 5.44004H45.6601V8.04004ZM52.8601 3.86004H54.5201V11.98H59.3201V13.58H52.8601V3.86004ZM60.9001 3.86004H63.6801C66.5801 3.86004 68.4601 5.76004 68.4601 8.76004C68.4601 11.76 66.5801 13.58 63.6801 13.58H60.9001V3.86004ZM63.8001 11.98C65.6401 11.98 66.7801 10.66 66.7801 8.76004C66.7801 6.86004 65.5801 5.46004 63.8001 5.46004H62.6001V11.98H63.8001ZM69.8601 8.70004C69.8601 5.68004 71.5401 3.70004 74.1601 3.70004C76.0201 3.70004 77.6001 4.72004 78.1001 6.60004L76.5201 7.10004C76.2001 6.18004 75.7401 5.30004 74.1601 5.30004C72.5801 5.30004 71.5401 6.72004 71.5401 8.70004C71.5401 10.68 72.5001 12.14 74.1601 12.14C75.8201 12.14 76.3201 11.16 76.5401 10.3L78.1001 10.8C77.6601 12.66 76.1401 13.76 74.1601 13.76C71.5401 13.76 69.8601 11.74 69.8601 8.70004ZM79.1001 8.74004C79.1001 5.60004 80.4801 3.66004 83.2001 3.66004C85.9201 3.66004 87.2601 5.60004 87.2601 8.74004C87.2601 11.88 85.9001 13.8 83.2001 13.8C80.5001 13.8 79.1001 11.84 79.1001 8.74004ZM85.6001 8.74004C85.6001 7.50004 85.3001 5.22004 83.2001 5.22004C81.1001 5.22004 80.8001 7.50004 80.8001 8.74004C80.8001 9.98004 81.0801 12.22 83.2001 12.22C85.3201 12.22 85.6001 9.94004 85.6001 8.74004ZM89.0201 3.86004H90.7201V13.58H89.0201V3.86004ZM100 3.86004V13.58H98.3201L94.5401 7.24004V13.58H92.8801V3.86004H94.5401L98.3201 10.42V3.86004H100ZM10.1401 6.70004C10.1606 6.72778 10.188 6.74972 10.2196 6.76374C10.2511 6.77776 10.2857 6.78337 10.3201 6.78004C10.3511 6.78831 10.3836 6.78899 10.415 6.78202C10.4463 6.77506 10.4755 6.76066 10.5001 6.74004C11.0001 6.40004 11.8401 5.80004 12.8001 5.22004C13.4761 6.00483 13.9256 6.95901 14.1001 7.98004C14.8201 6.94004 16.8801 4.24004 15.1001 2.88004C13.3201 1.52004 10.4001 5.12004 10.0801 6.46004C10.0695 6.47828 10.064 6.49898 10.064 6.52004C10.064 6.54111 10.0695 6.5618 10.0801 6.58004C10.0914 6.62383 10.1118 6.66473 10.1401 6.70004ZM11.3801 8.48004L11.2801 8.58004C11.2518 8.61535 11.2314 8.65625 11.2201 8.70004C11.2142 8.76275 11.2282 8.82573 11.2601 8.88004C11.2992 8.93611 11.3553 8.97816 11.4201 9.00004C12.0001 9.18004 13.0201 9.48004 14.0401 9.84004C13.8634 10.8564 13.3983 11.8006 12.7001 12.56C13.9601 12.48 17.3601 12.42 17.3001 10.2C17.2401 8.30004 12.6401 7.90004 11.3801 8.48004ZM10.6001 10.78L10.4801 10.74L10.3601 10.78C10.3311 10.7933 10.3054 10.8127 10.2847 10.8369C10.264 10.861 10.2488 10.8894 10.2401 10.92C10.2257 10.9514 10.2183 10.9855 10.2183 11.02C10.2183 11.0546 10.2257 11.0887 10.2401 11.12C10.4601 11.68 10.8401 12.64 11.2001 13.7C10.2902 14.1792 9.26664 14.4005 8.24008 14.34C9.08008 15.28 11.2401 17.9 12.9801 16.48C14.7201 15.06 11.8401 11.38 10.6001 10.78ZM8.34008 11.58L8.28008 11.48L8.18008 11.4C8.11492 11.38 8.04524 11.38 7.98008 11.4C7.94945 11.4087 7.92107 11.424 7.8969 11.4447C7.87273 11.4654 7.85334 11.4911 7.84008 11.52C7.54008 12.04 7.00008 12.94 6.42008 13.88C5.46982 13.4717 4.65739 12.7982 4.08008 11.94C3.86008 13.2 3.16008 16.52 5.34008 16.98C7.18008 17.34 8.62008 12.92 8.34008 11.58ZM6.28008 10.32C6.3148 10.2893 6.33629 10.2463 6.34008 10.2C6.35061 10.1818 6.35616 10.1611 6.35616 10.14C6.35616 10.119 6.35061 10.0983 6.34008 10.08C6.31871 10.0201 6.28459 9.96552 6.24008 9.92004C6.21173 9.8991 6.17911 9.88465 6.14454 9.87774C6.10997 9.87083 6.07431 9.87161 6.04008 9.88004C5.42008 9.98004 4.40008 10.14 3.32008 10.26C3.03342 9.25814 3.04733 8.19411 3.36008 7.20004C2.22008 7.82004 -0.799919 9.36004 0.200081 11.34C1.06008 13 5.40008 11.38 6.28008 10.32ZM6.00008 7.92004C6.02356 7.92633 6.04807 7.9278 6.07213 7.92437C6.09619 7.92093 6.1193 7.91266 6.14008 7.90004C6.17699 7.87638 6.2051 7.84124 6.22008 7.80004C6.26042 7.74885 6.28164 7.6852 6.28008 7.62004C6.26303 7.55234 6.22855 7.49029 6.18008 7.44004C5.74008 7.04004 4.98008 6.34004 4.22008 5.56004C4.81898 4.71677 5.65404 4.06959 6.62008 3.70004C5.44008 3.18004 2.34008 1.76004 1.42008 3.80004C0.660081 5.52004 4.62008 7.90004 6.00008 7.92004ZM7.94008 6.32004C8.00173 6.31499 8.05905 6.28633 8.10008 6.24004C8.14855 6.1898 8.18303 6.12774 8.20008 6.06004C8.24008 5.46004 8.32008 4.42004 8.44008 3.32004C9.47784 3.27242 10.5068 3.52966 11.4001 4.06004C11.0401 2.82004 10.2401 -0.459957 8.10008 0.0600429C6.26008 0.520043 6.86008 5.12004 7.72008 6.22004C7.74592 6.25328 7.77944 6.27974 7.81776 6.29716C7.85608 6.31457 7.89806 6.32243 7.94008 6.32004Z" fill="white"/>
</svg>
